<svg xmlns="http://www.w3.org/2000/svg" width="560" height="291" viewBox="0 0 560 291">
  <g fill="none">
    <path fill="#21313C" d="M549.969502 80.1245256C544.450012 80.1239952 539.968825 75.662756 539.943565 70.1433234 539.918517 64.6238907 544.358855 60.1219929 549.878111 60.0711548 555.397367 60.0203167 559.919879 64.4396574 559.9964 69.9586169 560.069015 72.6521893 559.040558 75.2589877 557.148384 77.1773942 555.25621 79.0958006 552.663818 80.1600498 549.969502 80.1245256M549.969502 60.9773206C546.275039 60.9528666 542.930291 63.1582407 541.497249 66.5635371 540.064208 69.9688334 540.825611 73.9021881 543.425885 76.5267313 546.026159 79.1512746 549.95227 79.9491848 553.370732 78.5478393 556.789194 77.1464938 559.025545 73.8223776 559.035413 70.1278473 559.082935 67.7014342 558.145827 65.3591977 556.437754 63.6351831 554.729681 61.9111685 552.396251 60.9523414 549.969502 60.9773206M552.387078 76.4377216L549.800271 70.8591641 547.715112 70.8591641 547.715112 76.4377216 546.198082 76.4377216 546.198082 63.7454456 549.939282 63.7454456C552.725539 63.7454456 553.885975 64.9542338 553.885975 67.2932389 553.885975 69.1547728 553.009604 70.3152094 551.37774 70.6718019L554.049162 76.4195898 552.387078 76.4377216zM547.775551 69.5476289L549.969502 69.5476289C551.74642 69.5476289 552.423342 68.9432348 552.423342 67.3234586 552.423342 65.7036825 551.77664 65.1536838 549.776096 65.1536838L547.775551 65.1536838 547.775551 69.5476289zM400.738555 70.9860869C403.452284 73.1558617 408.873699 74.050365 413.654457 74.050365 419.849496 74.050365 425.923657 72.9020162 431.858807 67.5410405 437.902748 62.0470982 442.060979 53.6399762 442.060979 40.2163833 442.060979 27.3186133 437.153299 16.8505075 427.084094 10.7219513 421.402789 7.14998219 414.041269 5.74174394 405.646235 5.74174394 403.228658 5.74174394 400.738555 5.8686667 399.324273 6.50932444 398.744455 6.96702444 398.333948 7.60511806 398.157792 8.32250674 397.903946 10.6192043 397.903946 28.1103695 397.903946 38.4515525 397.903946 49.052625 397.903946 63.8361047 398.157792 65.649287 398.290759 67.184448 399.064383 69.8800457 400.738555 71.0102626M374.96719 0C377.161141 0 385.50178.380768282 389.38199.380768282 396.634719.380768282 401.645146 0 415.201706 0 426.564315 0 436.125829 3.06427808 442.961526 8.93294478 451.229638 16.0889709 455.653803 26.0433417 455.653803 38.1735313 455.653803 55.410851 447.796679 65.3712657 439.897248 70.9860869 432.040125 76.8607975 421.819821 80.1789211 407.259967 80.1789211 399.511635 80.1789211 386.208921 79.9250756 375.106201 79.7981528L374.876531 79.7981528C374.356752 78.7767268 375.82543 74.7937697 376.732021 74.6910227 379.753992 74.352562 380.551792 74.2316832 381.941898 73.6575088 384.286947 72.6965222 384.836946 71.4998219 385.096835 67.287195 385.483648 59.3696323 385.356725 49.9229525 385.356725 39.1949573 385.356725 31.5372841 385.483648 16.5966619 385.229802 11.8703001 384.836946 7.91756269 383.168818 6.89613666 379.790255 6.12855616 377.39435 5.61960518 374.973468 5.23629882 372.537526 4.98020737 372.283681 4.21262687 374.266093.749448682 374.912795 0M487.65647 6.47910474C487.142735 6.6060275 486.496033 7.88734299 486.496033 8.52195679 486.363067 13.1213959 486.236144 25.1186187 486.236144 33.4169497 486.302986 33.7412708 486.557911 33.9938136 486.882846 34.0576075 488.557017 34.1845302 492.691073 34.3174969 496.178427 34.3174969 501.086107 34.3174969 503.926759 33.6768392 505.474008 32.9092587 509.608064 30.8664066 511.517949 26.3938903 511.517949 21.5466496 511.517949 10.4378861 503.769617 6.22525921 492.280085 6.22525921 490.726884 6.20563695 489.17412 6.29044329 487.632294 6.47910474M516.945408 57.5504061C516.945408 46.3147198 508.677297 39.9323181 493.567444 39.9323181 492.926787 39.9323181 488.127897 39.8053953 486.985593 40.0592409 486.59878 40.1861636 486.211968 40.4400091 486.211968 40.6998986 486.211968 48.744384 486.079001 61.6361102 486.471858 66.7432403 486.731747 68.9130151 488.28504 71.9772932 490.213057 72.8717965 492.280085 74.0201452 496.927876 74.2739908 500.15534 74.2739908 509.064109 74.2739908 516.945408 69.2998273 516.945408 57.5504061M464.326858.223625816C465.493338.223625816 468.926297.604394099 477.708143.604394099 485.970211.604394099 492.685029.350548577 500.675119.350548577 510.617402.350548577 524.300884 3.92856164 524.300884 18.7362171 524.300884 25.9889462 519.139359 31.8878326 512.42454 34.6982652 512.037728 34.825188 512.037728 35.0790335 512.42454 35.2059562 521.980011 37.6235326 530.369001 43.5042872 530.369001 54.7399735 530.369001 65.7218143 523.52726 72.6179509 513.584977 76.9575006 507.541036 79.6410104 500.028417 80.5294697 492.431183 80.5294697 486.622956 80.5294697 471.053764 79.9250756 462.398841 80.0217786 461.49225 79.6410104 463.226861 75.5492623 464.000485 74.9146485 465.983335 74.853688 467.950785 74.5450684 469.857064 73.9959695 472.951562 73.2344329 473.320242 72.2371827 473.707054 67.6377436 473.966944 63.6789622 473.966944 49.5059206 473.966944 39.4185831 473.966944 25.6263098 474.09991 16.3125967 473.966944 11.7131576 473.840021 8.14118851 472.546618 6.98679578 470.092778 6.35218198 468.158716 5.96536975 464.931252 5.58460147 462.350489 5.20383319 461.703787 4.56317544 463.692244.731316859 464.332902.223625816M1.20987987 80.1245256C.877327312 79.3072654.742713715 78.4229576.817023709 77.5437628.788057796 76.9444722.923933794 76.3487082 1.20987987 75.8212397 2.87992746 75.5803896 4.53468772 75.2433836 6.16591148 74.8119015 8.45052117 74.2437711 9.30876079 72.9987192 9.4417275 70.0855397 9.81645184 63.2014909 9.8406276 50.285589 9.7076609 41.2075896L9.7076609 40.9416562C9.7076609 39.9625378 9.7076609 38.6328708 8.4988727 37.6960599 6.37429211 36.3631403 4.06771408 35.345233 1.65108757 34.6740894.569222129 34.3537606-.0291280288 33.7856301.00109167614 33.1207966.0313113811 32.4559631.714276712 31.6702508 2.12251496 31.3922295 5.86371443 31.0114612 15.6669867 28.672456 19.5169771 26.8955374 19.9134193 27.4121831 20.0972235 28.0609038 20.0307121 28.7087197 20.0307121 29.1076198 19.9702727 29.5306957 19.9279651 29.9658594 19.8191742 31.2471749 19.6982953 32.7037647 19.6982953 34.1543105 19.7465836 34.5137373 19.9942995 34.8147932 20.3376992 34.9313953 20.6810988 35.0479974 21.0609118 34.9600204 21.3180715 34.7043091 28.6493719 28.9565213 35.2191358 26.9076253 38.5856109 26.9076253 44.1279048 26.9076253 48.4432787 29.5548714 51.785578 35.0065062 51.9414189 35.2741476 52.2253858 35.4413217 52.5350267 35.4477139 52.815974 35.4450937 53.0778491 35.3051259 53.2361239 35.0729895 59.9751181 29.9598155 66.6536729 26.9076253 71.1261892 26.9076253 81.690998 26.9076253 88.0069164 34.819144 88.0069164 48.0614187 88.0069164 51.8691015 87.9706527 56.6982104 87.9343891 61.2009464 87.9041694 65.1536838 87.8739497 68.8586196 87.8739497 71.4212506 87.8739497 72.0256447 88.7080135 73.7662997 89.9591093 74.1108044 91.5063582 74.866297 93.7365724 75.2531092 96.5590929 75.7366245L96.6678838 75.7366245C96.8794217 76.4981611 96.4321701 79.4536482 96.0030503 80.0580423 95.3019531 80.0580423 94.3349226 79.9976029 93.1261344 79.9371635 90.9321838 79.8283725 87.9223012 79.677274 84.4228594 79.677274 77.3997999 79.677274 73.7311278 79.8102407 70.225642 80.0399105 69.9597086 79.163539 69.8690495 76.3349746 70.1893783 75.7426684 71.641049 75.515656 73.0779951 75.2028377 74.4926643 74.8058576 76.7289225 74.0684968 77.3756242 73.0531147 77.5146348 70.0855397 77.5690303 67.9762043 77.9739743 49.3910857 77.2547454 44.9790088 76.5899118 40.4037455 73.1448655 35.0488138 65.6080711 35.0488138 62.8097264 35.0488138 58.2949025 36.2152944 53.9916165 39.4790225 53.7246924 39.7815804 53.5746489 40.16955 53.5685406 40.5729758L53.5685406 40.6636349C54.0762317 43.0449477 54.0762317 45.8251606 54.0762317 50.0256995 54.0762317 52.4432759 54.0762317 54.9635993 54.046012 57.4839227 54.0157923 62.6091847 53.9916165 67.4443375 54.0762317 71.1009218 54.0762317 73.5910254 55.581173 74.1893756 56.7960051 74.6668469 57.4547947 74.8119015 57.9745736 74.9388243 58.5003965 75.0597031 59.5097346 75.3075047 60.5613803 75.5613502 62.1267611 75.8091518 62.3584805 76.8709089 62.337779 77.9722295 62.0663217 79.0245284 62.0022683 79.419445 61.8470654 79.7940012 61.6130261 80.1184817 57.7086402 79.985515 53.7015073 79.8706801 47.9174558 79.8706801 46.1647129 79.8706801 43.3059288 79.9432074 40.7795615 80.0096908 38.7306655 80.0640862 36.7966044 80.1184817 35.6966071 80.1245256 35.3991161 79.4225191 35.266779 78.6615805 35.3097949 77.9003554 35.248049 77.1831039 35.3883233 76.4628899 35.714739 75.8212397L37.2680318 75.5371744C38.6218746 75.2954168 39.7943991 75.0899228 40.8943964 74.8119015 42.8042817 74.2075074 43.5235107 73.1679496 43.6625214 70.7322414 44.0372457 65.0509368 44.3273549 48.6779007 43.5235107 44.5801087 42.15758 38.0043009 38.4163806 34.6680455 32.3966154 34.6680455 28.8729978 34.6680455 24.4186133 36.3663929 20.7801608 39.0922103 20.0726348 39.7811197 19.684855 40.734138 19.7103832 41.7213246 19.7103832 43.6735176 19.7103832 45.9943909 19.7103832 48.4844946 19.7103832 56.7042543 19.6559878 66.9366464 19.8554378 71.3608112 19.9763166 72.7267419 20.4598319 74.3465181 23.0164189 74.9388243 23.5785055 75.1020107 24.545536 75.2591531 25.669709 75.4465153 26.3164107 75.5553063 27.0235518 75.6701411 27.7548687 75.8031078 27.9873599 77.2503996 27.8692186 78.7323481 27.410364 80.1245256 26.286191 80.1245256 24.9021285 80.0519984 23.318616 79.985515 20.9010396 79.8767241 17.8790691 79.7437574 14.4642425 79.7437574 10.4268899 79.7437574 7.61645732 79.8767241 5.36206733 79.985515 3.84503814 80.0580423 2.53350295 80.1184817 1.22196776 80.1245256M130.822194 32.3713479C128.640789 32.3260498 126.495093 32.9297897 124.657374 34.105959 120.17277 36.8317764 117.888161 42.2773672 117.888161 50.2795451 117.888161 65.2564308 125.388691 75.7184927 136.128774 75.7184927 139.008496 75.809806 141.817327 74.8152815 143.997986 72.9322359 147.297977 70.2426821 149.05072 64.7426958 149.05072 57.042715 149.05072 42.2894551 141.71942 32.3713479 130.810106 32.3713479M132.877134 81.2728744C113.476084 81.2728744 106.567859 67.0393934 106.567859 53.7245914 106.567859 44.4229662 110.369498 37.1521052 117.870029 32.1054145 123.123472 28.8531253 129.153597 27.0705963 135.330974 26.9438889 150.132586 26.9438889 160.473769 37.587269 160.473769 52.8361321 160.473769 63.1954469 156.345757 71.378943 148.530941 76.4921171 144.777654 78.7888147 138.256242 81.2728744 132.877134 81.2728744M328.338186 32.3713479C326.152454 32.3218037 324.001679 32.9257884 322.161278 34.105959 317.676674 36.8317764 315.392064 42.2773672 315.392064 50.2795451 315.392064 65.2564308 322.892595 75.7184927 333.632678 75.7184927 336.520651 75.815935 339.339204 74.8210243 341.526065 72.9322359 344.826057 70.2426821 346.572756 64.7426958 346.572756 57.042715 346.572756 42.2894551 339.247499 32.3713479 328.338186 32.3713479M330.405214 81.2728744C311.004163 81.2728744 304.095938 67.0393934 304.095938 53.7306354 304.095938 44.4169223 307.897577 37.1521052 315.404152 32.1054145 320.654495 28.8511607 326.683233 27.0684243 332.859054 26.9438889 347.660665 26.9438889 358.001848 37.5933129 358.001848 52.8300882 358.001848 63.2014909 353.873836 71.378943 346.059021 76.4860732 342.305733 78.7888147 335.784321 81.2728744 330.405214 81.2728744M263.015272 31.8636569C257.037814 31.8636569 253.169692 36.5839748 253.169692 43.8910994 253.169692 51.1982241 256.499903 59.8833673 265.861968 59.8833673 267.469656 59.8833673 270.382836 59.1701822 271.827337 57.5806258 274.003156 55.5800813 275.453702 51.4460257 275.453702 47.0823003 275.453702 37.5510053 270.811955 31.8636569 263.045491 31.8636569M262.271867 82.2943005C260.583152 82.2758736 258.918085 82.6921401 257.436714 83.5030887 252.704308 86.5250591 250.510358 89.5470296 250.510358 93.0585594 250.510358 96.3464632 251.785629 98.9634897 254.529578 101.284363 257.853746 104.10084 262.33835 105.472814 268.231193 105.472814 279.829515 105.472814 285.027305 99.235467 285.027305 93.0585594 285.027305 88.7552734 282.869618 85.8723135 278.427321 84.2404495 275.00645 82.9893537 269.288882 82.3003444 262.289999 82.3003444M263.063623 111.915655C256.101003 111.915655 251.084532 110.446978 246.799378 107.146986 242.629059 103.931609 240.755437 99.1568958 240.755437 95.856904 240.800558 93.7302923 241.611808 91.6914363 243.040047 90.1151601 244.248835 88.7371415 247.059267 86.1563787 253.556504 81.6899064 253.76241 81.6023549 253.895781 81.3999163 253.894965 81.1761714 253.899234 80.9245766 253.728511 80.703642 253.483977 80.6443046 248.135089 78.5954086 246.521357 75.2047577 246.031797 73.3915754 246.031797 73.325092 246.031797 73.222345 245.977402 73.1075102 245.826303 72.3943251 245.681249 71.7174037 246.654323 71.0223505 247.403772 70.4904837 248.600472 69.7772987 249.881788 69.0218061 251.690543 68.0205664 253.425533 66.8915105 255.073533 65.643243 255.253073 65.4503098 255.333245 65.1851626 255.290685 64.9250735 255.248125 64.6649843 255.087622 64.4392203 254.855951 64.313576 246.938389 61.654242 242.949387 55.7734874 242.949387 46.7861472 242.900071 41.0983079 245.630031 35.7444289 250.262556 32.4438752 253.447713 29.9235518 261.443847 26.8955374 266.623504 26.8955374L266.925701 26.8955374C272.250413 27.0224601 275.254252 28.1405892 279.412483 29.6757502 281.77785 30.531032 284.284226 30.9289345 286.798179 30.8482748 291.204212 30.8482748 293.132229 29.4521244 294.788269 27.8263043 295.056817 28.5586167 295.199851 29.3309992 295.211345 30.110914 295.312517 31.9692477 294.807737 33.8102108 293.772887 35.3570548 292.87234 36.6081505 290.750917 37.5147417 288.810812 37.5147417 288.611362 37.5147417 288.417955 37.5147417 288.206418 37.484522 287.185568 37.412646 286.173768 37.2446872 285.184447 36.9828749L284.688844 37.1581492C284.531701 37.3878189 284.634448 37.6416645 284.761371 37.9680373 284.792367 38.0318389 284.816672 38.0986787 284.833898 38.1674873 285.187636 39.7805597 285.427967 41.4164259 285.553127 43.0630795 285.553127 52.4614078 281.848192 56.5531558 277.841059 59.5872142 273.966889 62.4941152 269.365905 64.275951 264.544389 64.7366519L264.544389 64.7366519C264.441642 64.7366519 263.939995 64.7789595 262.99714 64.8635747 262.392746 64.9179701 261.607033 64.9904974 261.492198 64.9904974L261.377364 64.9904974C260.507036 65.2322551 258.234514 66.3141205 258.234514 68.3267528 258.234514 69.9948806 259.261984 72.0679523 264.175708 72.4426767L267.354821 72.6663025C273.833926 73.119598 281.926763 73.6816846 285.734446 74.969044 290.91504 76.7907348 294.343227 81.7295656 294.238271 87.2201124 294.238271 95.65141 288.242681 103.581061 278.203695 108.428301 273.469525 110.689558 268.285892 111.852725 263.039447 111.83104M233.363697 75.6278335C230.523045 75.2470653 228.449973 74.860253 226.002177 73.7119043 225.521826 73.2143309 225.205434 72.5815464 225.095586 71.898722 224.835696 67.9399406 224.835696 56.4504088 224.835696 48.9317462 224.835696 42.7971461 223.808226 37.4482583 221.209332 33.6103558 218.10879 29.2647623 213.720889 26.7142192 208.039584 26.7142192 203.004981 26.7142192 196.290163 30.1592655 190.741825 34.8856274 190.608859 35.0125501 189.756663 35.8224382 189.774795 34.5652985 189.792926 33.3081588 189.986333 30.7576157 190.107211 29.1257516 190.216072 28.2465961 189.902222 27.3678167 189.26106 26.7565267 185.634695 28.569709 175.462742 30.9872854 171.697367 31.3559658 168.953418 31.8878326 168.258365 34.5290348 171.189676 35.4416699L171.231984 35.4416699C173.578405 36.0886951 175.81804 37.0741342 177.880319 38.3669374 179.040755 39.2614406 178.913833 40.5367122 178.913833 41.5581382 179.040755 50.1103147 179.040755 63.2619303 178.653943 70.4119125 178.527021 73.222345 177.747352 74.2437711 175.680324 74.757506L175.87373 74.6910227C174.299676 75.0854845 172.703164 75.3841997 171.092973 75.585526 170.446271 76.2201398 170.446271 79.9250756 171.092973 80.6926561 172.386376 80.6926561 178.950096 80.3118878 184.389643 80.3118878 191.872042 80.3118878 195.746208 80.6926561 197.686313 80.6926561 198.465982 79.7981528 198.719827 76.3531065 198.206092 75.585526 196.418296 75.5046778 194.642845 75.2475713 192.905556 74.8179455 190.844572 74.3102544 190.324793 73.2827844 190.197871 70.9921308 189.944025 64.9844535 189.944025 52.2196501 189.944025 43.5345069 189.944025 41.1169305 190.584683 39.9625378 191.358307 39.3037482 193.93907 37.0070507 198.206092 35.4779336 201.947292 35.4779336 205.573656 35.4779336 207.991233 36.6262824 209.804415 38.1553994 211.916337 39.9982051 213.240358 42.5813446 213.503307 45.371865 214.017042 50.2070178 213.884075 59.9317188 213.884075 68.3388407 213.884075 72.9382798 213.503307 74.0926725 211.823091 74.6003636 211.049467 74.9811319 208.982439 75.3679441 206.528599 75.6217896 205.754975 76.3893701 206.00882 79.9613392 206.528599 80.7289197 209.882986 80.7289197 213.781328 80.3481515 219.438457 80.3481515 226.540088 80.3481515 231.060956 80.7289197 232.868094 80.7289197 233.641718 79.8344165 233.901608 76.4981611 233.387873 75.6217896" transform="translate(0 178.956)"/>
    <g transform="translate(240.549)">
      <path fill="#10AA50" d="M77.434626,69.8981775 C68.1813523,29.0774001 48.8951367,18.2103942 43.9753687,10.5285452 C41.9466797,7.14450288 40.1495308,3.62693743 38.5962612,-1.71779134e-14 C38.3363718,3.62636459 37.8589004,5.91097428 34.7764905,8.66096743 C28.5874949,14.1790856 2.3023956,35.5988124 0.0903131979,81.9800155 C-1.97067068,125.224413 31.8814428,151.890281 36.3539591,154.646318 C39.7929615,156.338621 43.9814126,154.682582 46.0242647,153.129289 C62.3429053,141.929866 84.6390036,112.072798 77.4527578,69.8981775"/>
      <path fill="#B8C4C2" d="M39.9984555,131.618903 C39.1462598,142.322722 38.5358218,148.541938 36.3720909,154.658406 C36.3720909,154.658406 37.7924171,164.84849 38.7896673,175.642969 L42.3193289,175.642969 C43.1612705,168.041627 44.4467929,160.495994 46.1693193,153.044674 C41.6000999,150.796328 40.1737298,141.011187 39.9984555,131.618903 Z"/>
      <path fill="#12924F" d="M46.1632753,153.050718 L46.1632753,153.050718 C41.5457044,150.917206 40.2099935,140.926572 40.0044995,131.618903 C41.1464422,116.26523 41.4793196,100.862086 41.0017497,85.4734134 C40.7599921,77.3987083 41.1165846,10.6856877 39.0132931,0.91867903 C40.45206,4.22666553 42.1097609,7.43505369 43.9753687,10.5225013 C48.8951367,18.2103942 68.1873963,29.0774001 77.434626,69.8981775 C84.6390036,112.00027 62.4637842,141.778768 46.1632753,153.050718 Z"/>
    </g>
  </g>
</svg>
